<mxfile host="app.diagrams.net" modified="2023-12-02T10:51:36.245Z" agent="Mozilla/5.0 (Windows NT 10.0; Win64; x64) AppleWebKit/537.36 (KHTML, like Gecko) Chrome/119.0.0.0 Safari/537.36" etag="3Pv8E4Sp8-EZiAqcYmD0" version="22.1.5" type="device">
  <diagram name="Страница — 1" id="LKnLLRkMVWml-KY2WUB6">
    <mxGraphModel dx="1434" dy="758" grid="1" gridSize="10" guides="1" tooltips="1" connect="1" arrows="1" fold="1" page="1" pageScale="1" pageWidth="827" pageHeight="1169" math="0" shadow="0">
      <root>
        <mxCell id="0" />
        <mxCell id="1" parent="0" />
        <mxCell id="gv8XXud_SDX8el0HdA36-11" style="edgeStyle=orthogonalEdgeStyle;rounded=0;orthogonalLoop=1;jettySize=auto;html=1;entryX=0.5;entryY=0;entryDx=0;entryDy=0;" parent="1" source="viM37Y9n0uljswLQWr0s-1" target="gv8XXud_SDX8el0HdA36-10" edge="1">
          <mxGeometry relative="1" as="geometry" />
        </mxCell>
        <mxCell id="gv8XXud_SDX8el0HdA36-12" style="edgeStyle=orthogonalEdgeStyle;rounded=0;orthogonalLoop=1;jettySize=auto;html=1;entryX=0.5;entryY=0;entryDx=0;entryDy=0;" parent="1" source="viM37Y9n0uljswLQWr0s-1" target="gv8XXud_SDX8el0HdA36-9" edge="1">
          <mxGeometry relative="1" as="geometry">
            <mxPoint x="170" y="680" as="targetPoint" />
          </mxGeometry>
        </mxCell>
        <mxCell id="viM37Y9n0uljswLQWr0s-1" value="DB" style="strokeWidth=2;html=1;shape=mxgraph.flowchart.database;whiteSpace=wrap;" parent="1" vertex="1">
          <mxGeometry x="270" y="450" width="120" height="110" as="geometry" />
        </mxCell>
        <mxCell id="viM37Y9n0uljswLQWr0s-2" value="TranManager" style="strokeWidth=2;html=1;shape=mxgraph.flowchart.database;whiteSpace=wrap;" parent="1" vertex="1">
          <mxGeometry x="630" y="360" width="85" height="60" as="geometry" />
        </mxCell>
        <mxCell id="viM37Y9n0uljswLQWr0s-7" style="edgeStyle=orthogonalEdgeStyle;rounded=0;orthogonalLoop=1;jettySize=auto;html=1;entryX=0.5;entryY=0;entryDx=0;entryDy=0;" parent="1" source="viM37Y9n0uljswLQWr0s-3" target="viM37Y9n0uljswLQWr0s-4" edge="1">
          <mxGeometry relative="1" as="geometry" />
        </mxCell>
        <mxCell id="viM37Y9n0uljswLQWr0s-12" value="REST" style="edgeLabel;html=1;align=center;verticalAlign=middle;resizable=0;points=[];" parent="viM37Y9n0uljswLQWr0s-7" vertex="1" connectable="0">
          <mxGeometry x="-0.1" y="1" relative="1" as="geometry">
            <mxPoint as="offset" />
          </mxGeometry>
        </mxCell>
        <mxCell id="viM37Y9n0uljswLQWr0s-3" value="nginx" style="rounded=1;whiteSpace=wrap;html=1;absoluteArcSize=1;arcSize=14;strokeWidth=2;" parent="1" vertex="1">
          <mxGeometry x="110" y="80" width="80" height="40" as="geometry" />
        </mxCell>
        <mxCell id="viM37Y9n0uljswLQWr0s-8" style="edgeStyle=orthogonalEdgeStyle;rounded=0;orthogonalLoop=1;jettySize=auto;html=1;entryX=0.5;entryY=0;entryDx=0;entryDy=0;" parent="1" source="viM37Y9n0uljswLQWr0s-4" target="viM37Y9n0uljswLQWr0s-5" edge="1">
          <mxGeometry relative="1" as="geometry" />
        </mxCell>
        <mxCell id="gv8XXud_SDX8el0HdA36-19" value="wrt user" style="edgeLabel;html=1;align=center;verticalAlign=middle;resizable=0;points=[];" parent="viM37Y9n0uljswLQWr0s-8" vertex="1" connectable="0">
          <mxGeometry x="-0.325" relative="1" as="geometry">
            <mxPoint as="offset" />
          </mxGeometry>
        </mxCell>
        <mxCell id="viM37Y9n0uljswLQWr0s-17" style="edgeStyle=orthogonalEdgeStyle;rounded=0;orthogonalLoop=1;jettySize=auto;html=1;" parent="1" source="viM37Y9n0uljswLQWr0s-4" target="viM37Y9n0uljswLQWr0s-1" edge="1">
          <mxGeometry relative="1" as="geometry" />
        </mxCell>
        <mxCell id="gv8XXud_SDX8el0HdA36-20" value="read" style="edgeLabel;html=1;align=center;verticalAlign=middle;resizable=0;points=[];" parent="viM37Y9n0uljswLQWr0s-17" vertex="1" connectable="0">
          <mxGeometry x="-0.54" y="-2" relative="1" as="geometry">
            <mxPoint as="offset" />
          </mxGeometry>
        </mxCell>
        <mxCell id="viM37Y9n0uljswLQWr0s-4" value="&lt;div&gt;app-simple-ws-r&lt;br&gt;(simple-ws-amd64_r_tran_m)&lt;/div&gt;" style="rounded=1;whiteSpace=wrap;html=1;absoluteArcSize=1;arcSize=14;strokeWidth=2;" parent="1" vertex="1">
          <mxGeometry x="290" y="190" width="170" height="40" as="geometry" />
        </mxCell>
        <mxCell id="viM37Y9n0uljswLQWr0s-10" style="edgeStyle=orthogonalEdgeStyle;rounded=0;orthogonalLoop=1;jettySize=auto;html=1;entryX=0.25;entryY=0;entryDx=0;entryDy=0;" parent="1" target="viM37Y9n0uljswLQWr0s-6" edge="1">
          <mxGeometry relative="1" as="geometry">
            <mxPoint x="560" y="280" as="sourcePoint" />
            <mxPoint x="460" y="360" as="targetPoint" />
            <Array as="points">
              <mxPoint x="560" y="320" />
              <mxPoint x="460" y="320" />
            </Array>
          </mxGeometry>
        </mxCell>
        <mxCell id="gv8XXud_SDX8el0HdA36-14" value="Commit" style="edgeLabel;html=1;align=center;verticalAlign=middle;resizable=0;points=[];" parent="viM37Y9n0uljswLQWr0s-10" vertex="1" connectable="0">
          <mxGeometry x="-0.1" relative="1" as="geometry">
            <mxPoint as="offset" />
          </mxGeometry>
        </mxCell>
        <mxCell id="viM37Y9n0uljswLQWr0s-5" value="commit manager&lt;br&gt;(simple-ws-amd64_tran_m&lt;span style=&quot;background-color: initial;&quot;&gt;)&lt;/span&gt;" style="rounded=1;whiteSpace=wrap;html=1;absoluteArcSize=1;arcSize=14;strokeWidth=2;" parent="1" vertex="1">
          <mxGeometry x="490" y="250" width="160" height="40" as="geometry" />
        </mxCell>
        <mxCell id="WV3jd1GavZSCu9e0lAM1-9" style="edgeStyle=orthogonalEdgeStyle;rounded=0;orthogonalLoop=1;jettySize=auto;html=1;entryX=0.25;entryY=1;entryDx=0;entryDy=0;" edge="1" parent="1" source="viM37Y9n0uljswLQWr0s-6" target="viM37Y9n0uljswLQWr0s-5">
          <mxGeometry relative="1" as="geometry">
            <Array as="points">
              <mxPoint x="510" y="350" />
              <mxPoint x="575" y="350" />
            </Array>
          </mxGeometry>
        </mxCell>
        <mxCell id="WV3jd1GavZSCu9e0lAM1-10" value="Confirm" style="edgeLabel;html=1;align=center;verticalAlign=middle;resizable=0;points=[];" vertex="1" connectable="0" parent="WV3jd1GavZSCu9e0lAM1-9">
          <mxGeometry x="-0.2" y="2" relative="1" as="geometry">
            <mxPoint as="offset" />
          </mxGeometry>
        </mxCell>
        <mxCell id="viM37Y9n0uljswLQWr0s-6" value="app-simple-ws-w&lt;br&gt;(simple-ws-amd64_w_two_phase&lt;span style=&quot;background-color: initial;&quot;&gt;)&lt;/span&gt;" style="rounded=1;whiteSpace=wrap;html=1;absoluteArcSize=1;arcSize=14;strokeWidth=2;" parent="1" vertex="1">
          <mxGeometry x="410" y="370" width="200" height="40" as="geometry" />
        </mxCell>
        <mxCell id="gv8XXud_SDX8el0HdA36-5" style="edgeStyle=orthogonalEdgeStyle;rounded=0;orthogonalLoop=1;jettySize=auto;html=1;entryX=0.93;entryY=0.069;entryDx=0;entryDy=0;entryPerimeter=0;" parent="1" source="viM37Y9n0uljswLQWr0s-6" target="viM37Y9n0uljswLQWr0s-1" edge="1">
          <mxGeometry relative="1" as="geometry" />
        </mxCell>
        <mxCell id="gv8XXud_SDX8el0HdA36-21" value="write / delete" style="edgeLabel;html=1;align=center;verticalAlign=middle;resizable=0;points=[];" parent="gv8XXud_SDX8el0HdA36-5" vertex="1" connectable="0">
          <mxGeometry x="0.3557" y="-1" relative="1" as="geometry">
            <mxPoint as="offset" />
          </mxGeometry>
        </mxCell>
        <mxCell id="gv8XXud_SDX8el0HdA36-8" style="edgeStyle=orthogonalEdgeStyle;rounded=0;orthogonalLoop=1;jettySize=auto;html=1;entryX=0.5;entryY=0;entryDx=0;entryDy=0;entryPerimeter=0;" parent="1" source="viM37Y9n0uljswLQWr0s-5" target="viM37Y9n0uljswLQWr0s-2" edge="1">
          <mxGeometry relative="1" as="geometry">
            <Array as="points">
              <mxPoint x="630" y="325" />
              <mxPoint x="673" y="325" />
            </Array>
          </mxGeometry>
        </mxCell>
        <mxCell id="gv8XXud_SDX8el0HdA36-17" value="Tran info" style="edgeLabel;html=1;align=center;verticalAlign=middle;resizable=0;points=[];" parent="gv8XXud_SDX8el0HdA36-8" vertex="1" connectable="0">
          <mxGeometry x="-0.0571" relative="1" as="geometry">
            <mxPoint as="offset" />
          </mxGeometry>
        </mxCell>
        <mxCell id="gv8XXud_SDX8el0HdA36-9" value="UserPrepared" style="shape=internalStorage;whiteSpace=wrap;html=1;dx=15;dy=15;rounded=1;arcSize=8;strokeWidth=2;" parent="1" vertex="1">
          <mxGeometry x="140" y="610" width="110" height="70" as="geometry" />
        </mxCell>
        <mxCell id="gv8XXud_SDX8el0HdA36-10" value="User" style="shape=internalStorage;whiteSpace=wrap;html=1;dx=15;dy=15;rounded=1;arcSize=8;strokeWidth=2;" parent="1" vertex="1">
          <mxGeometry x="55" y="610" width="70" height="70" as="geometry" />
        </mxCell>
        <mxCell id="WV3jd1GavZSCu9e0lAM1-3" value="пишем двойным киммитом, подтверждение запрашиваем у manager (в конкретном случае таблицаTranManager&lt;span style=&quot;background-color: initial;&quot;&gt;)&lt;/span&gt;" style="rounded=0;whiteSpace=wrap;html=1;" vertex="1" parent="1">
          <mxGeometry x="490" y="460" width="160" height="90" as="geometry" />
        </mxCell>
        <mxCell id="WV3jd1GavZSCu9e0lAM1-4" style="edgeStyle=orthogonalEdgeStyle;rounded=0;orthogonalLoop=1;jettySize=auto;html=1;entryX=0.592;entryY=1.025;entryDx=0;entryDy=0;entryPerimeter=0;" edge="1" parent="1" source="WV3jd1GavZSCu9e0lAM1-3" target="viM37Y9n0uljswLQWr0s-6">
          <mxGeometry relative="1" as="geometry" />
        </mxCell>
        <mxCell id="WV3jd1GavZSCu9e0lAM1-6" style="edgeStyle=orthogonalEdgeStyle;rounded=0;orthogonalLoop=1;jettySize=auto;html=1;entryX=1;entryY=0.5;entryDx=0;entryDy=0;" edge="1" parent="1" source="WV3jd1GavZSCu9e0lAM1-5" target="viM37Y9n0uljswLQWr0s-5">
          <mxGeometry relative="1" as="geometry" />
        </mxCell>
        <mxCell id="WV3jd1GavZSCu9e0lAM1-5" value="принимает запрос на добавление, управляет общей транзакцией" style="rounded=0;whiteSpace=wrap;html=1;" vertex="1" parent="1">
          <mxGeometry x="690" y="240" width="120" height="60" as="geometry" />
        </mxCell>
        <mxCell id="WV3jd1GavZSCu9e0lAM1-7" value="читает, отправляет запрос на изменение" style="rounded=0;whiteSpace=wrap;html=1;" vertex="1" parent="1">
          <mxGeometry x="100" y="220" width="120" height="60" as="geometry" />
        </mxCell>
        <mxCell id="WV3jd1GavZSCu9e0lAM1-8" style="edgeStyle=orthogonalEdgeStyle;rounded=0;orthogonalLoop=1;jettySize=auto;html=1;entryX=0.158;entryY=1;entryDx=0;entryDy=0;entryPerimeter=0;" edge="1" parent="1" source="WV3jd1GavZSCu9e0lAM1-7" target="viM37Y9n0uljswLQWr0s-4">
          <mxGeometry relative="1" as="geometry" />
        </mxCell>
      </root>
    </mxGraphModel>
  </diagram>
</mxfile>
